<svg id="Calque_1" data-name="Calque 1" xmlns="http://www.w3.org/2000/svg" xmlns:xlink="http://www.w3.org/1999/xlink" viewBox="0 0 622.44 503.95"><defs><style>.cls-1{fill:none;}.cls-2{clip-path:url(#clip-path);}</style><clipPath id="clip-path"><rect class="cls-1" width="622.44" height="503.95"/></clipPath></defs><title>r-icon-xl</title><g class="cls-2"><path d="M275.27,249.42h34.31c28,0,47.14-4.19,47.14-30.36,0-27.26-20.68-30.65-47.67-30.65H275.27ZM308,273.8H275.27v79.89H245.4V163.77h60.25c51.08,0,81.73,10.75,81.73,54.74,0,27.26-13.09,42.71-36.67,50l43.74,85.14H360.92l-40.6-80.15c-3.92.26-8.11.26-12.3.26"/></g><path d="M162.26,32.76H460.18L579.57,471.19H42.87ZM137.24,0,0,503.95H622.44L485.2,0Z"/></svg>